<svg width="210" height="104" viewBox="0 0 210 104" fill="none" xmlns="http://www.w3.org/2000/svg">
<g clip-path="url(#clip0)">
<g opacity="0.5">
<path d="M29.6102 46.46C32.5674 46.458 35.4588 47.3331 37.9187 48.9746C40.3785 50.6162 42.2962 52.9503 43.4293 55.6819C44.5623 58.4135 44.8598 61.4198 44.2841 64.3204C43.7084 67.2211 42.2853 69.8859 40.1949 71.9777C38.1045 74.0695 35.4407 75.4943 32.5404 76.072C29.6401 76.6496 26.6337 76.3542 23.9014 75.2229C21.169 74.0917 18.8336 72.1755 17.1904 69.7168C15.5472 67.258 14.6702 64.3672 14.6702 61.41C14.6833 57.4508 16.2613 53.6573 19.0599 50.8568C21.8586 48.0563 25.651 46.4758 29.6102 46.46ZM29.6102 40.46C25.4662 40.458 21.4148 41.685 17.9682 43.9858C14.5217 46.2866 11.8349 49.5579 10.2478 53.3858C8.66056 57.2138 8.24425 61.4264 9.05149 65.491C9.85872 69.5555 11.8532 73.2894 14.7827 76.2203C17.7122 79.1512 21.4452 81.1475 25.5093 81.9567C29.5735 82.7659 33.7864 82.3516 37.6151 80.7662C41.4438 79.1808 44.7163 76.4956 47.0187 73.0502C49.3212 69.6048 50.5502 65.5539 50.5502 61.41C50.5502 55.8554 48.3443 50.5282 44.4176 46.5996C40.4909 42.671 35.1647 40.4626 29.6102 40.46Z" fill="#1F64F6" fill-opacity="0.7"/>
</g>
<path d="M177.4 32.24V7.29004H0.540039V103.25H177.4V89.92" stroke="#071C2C" stroke-width="1.08" stroke-miterlimit="10"/>
<path d="M177.4 0.540039H0.540039V7.29004H177.4V0.540039Z" fill="#071C2C" stroke="#071C2C" stroke-width="1.08" stroke-miterlimit="10"/>
<path d="M0.540039 20.0901H166.05" stroke="#071C2C" stroke-width="1.08" stroke-miterlimit="10"/>
<path d="M102.56 61.4001H97.72C96.383 61.4625 95.1246 62.05 94.2183 63.0349C93.3121 64.0198 92.8311 65.3226 92.88 66.6601V78.2901C92.8747 79.6836 92.3188 81.0184 91.3335 82.0037C90.3482 82.989 89.0134 83.5449 87.62 83.5501H75.73" stroke="#071C2C" stroke-width="1.08" stroke-miterlimit="10"/>
<path d="M75.73 39.26H87.62C89.0134 39.2653 90.3482 39.8211 91.3335 40.8064C92.3188 41.7918 92.8747 43.1266 92.88 44.52V56.15C92.8826 57.5416 93.4366 58.8754 94.4206 59.8594C95.4046 60.8434 96.7384 61.3974 98.13 61.4H103.73" stroke="#071C2C" stroke-width="1.08" stroke-miterlimit="10"/>
<path d="M39.74 61.4H53.32C54.7116 61.3974 56.0454 60.8434 57.0294 59.8594C58.0134 58.8754 58.5673 57.5416 58.57 56.15V44.52C58.5752 43.1283 59.1297 41.795 60.1129 40.81C61.096 39.8249 62.4283 39.2679 63.82 39.26H75.73" stroke="#071C2C" stroke-width="1.08" stroke-miterlimit="10"/>
<path d="M107.34 61.4H120C121.391 61.3947 122.723 60.8399 123.707 59.8565C124.69 58.8731 125.245 57.5408 125.25 56.15V44.52C125.253 43.1275 125.806 41.7927 126.79 40.8071C127.774 39.8215 129.108 39.2653 130.5 39.26H141.43" stroke="#071C2C" stroke-width="1.08" stroke-miterlimit="10"/>
<path d="M75.73 83.5501H63.82C62.4283 83.5423 61.096 82.9852 60.1128 82.0002C59.1297 81.0152 58.5752 79.6818 58.57 78.2901V66.6601C58.5673 65.2676 58.0137 63.9328 57.03 62.9472C56.0462 61.9616 54.7124 61.4054 53.32 61.4001H37.7" stroke="#071C2C" stroke-width="1.08" stroke-miterlimit="10"/>
<path d="M140.77 83.5501H129.84C128.447 83.5449 127.112 82.989 126.126 82.0037C125.141 81.0184 124.585 79.6836 124.58 78.2901V66.6601C124.577 65.2676 124.024 63.9328 123.04 62.9472C122.056 61.9616 120.722 61.4054 119.33 61.4001H104.69" stroke="#071C2C" stroke-width="1.08" stroke-miterlimit="10"/>
<path d="M37.7001 66.21V56.6L29.38 51.79L21.05 56.6V66.21L29.38 71.02L37.7001 66.21Z" stroke="#071C2C" stroke-width="1.08" stroke-miterlimit="10"/>
<path d="M75.7301 89.14C78.8174 89.14 81.3201 86.6372 81.3201 83.55C81.3201 80.4627 78.8174 77.96 75.7301 77.96C72.6429 77.96 70.1401 80.4627 70.1401 83.55C70.1401 86.6372 72.6429 89.14 75.7301 89.14Z" fill="white" stroke="#071C2C" stroke-width="1.08" stroke-miterlimit="10"/>
<path d="M75.7301 44.8499C78.8174 44.8499 81.3201 42.3472 81.3201 39.2599C81.3201 36.1727 78.8174 33.6699 75.7301 33.6699C72.6429 33.6699 70.1401 36.1727 70.1401 39.2599C70.1401 42.3472 72.6429 44.8499 75.7301 44.8499Z" fill="white" stroke="#071C2C" stroke-width="1.08" stroke-miterlimit="10"/>
<path d="M54.5701 61.4001H70.1401" stroke="#071C2C" stroke-width="1.08" stroke-miterlimit="10"/>
<path d="M81.45 61.4001H103.73" stroke="#071C2C" stroke-width="1.08" stroke-miterlimit="10"/>
<path d="M75.7301 66.9901C78.8174 66.9901 81.3201 64.4873 81.3201 61.4001C81.3201 58.3128 78.8174 55.8101 75.7301 55.8101C72.6429 55.8101 70.1401 58.3128 70.1401 61.4001C70.1401 64.4873 72.6429 66.9901 75.7301 66.9901Z" stroke="#071C2C" stroke-width="1.08" stroke-miterlimit="10"/>
<path d="M141.34 89.14C144.427 89.14 146.93 86.6372 146.93 83.55C146.93 80.4627 144.427 77.96 141.34 77.96C138.253 77.96 135.75 80.4627 135.75 83.55C135.75 86.6372 138.253 89.14 141.34 89.14Z" fill="white" stroke="#071C2C" stroke-width="1.08" stroke-miterlimit="10"/>
<path d="M141.34 44.8499C144.427 44.8499 146.93 42.3472 146.93 39.2599C146.93 36.1727 144.427 33.6699 141.34 33.6699C138.253 33.6699 135.75 36.1727 135.75 39.2599C135.75 42.3472 138.253 44.8499 141.34 44.8499Z" fill="white" stroke="#071C2C" stroke-width="1.08" stroke-miterlimit="10"/>
<path d="M122.37 61.4001H161.51" stroke="#071C2C" stroke-width="1.08" stroke-miterlimit="10"/>
<path d="M109.4 66.9901C112.487 66.9901 114.99 64.4873 114.99 61.4001C114.99 58.3128 112.487 55.8101 109.4 55.8101C106.313 55.8101 103.81 58.3128 103.81 61.4001C103.81 64.4873 106.313 66.9901 109.4 66.9901Z" fill="white" stroke="#071C2C" stroke-width="1.08" stroke-miterlimit="10"/>
<path d="M174.15 44.9999C172.419 44.4524 170.615 44.1725 168.8 44.1699C164.74 44.17 160.805 45.578 157.666 48.1539C154.528 50.7298 152.38 54.3143 151.588 58.2966C150.796 62.2789 151.409 66.4126 153.323 69.9934C155.237 73.5742 158.334 76.3805 162.085 77.9342C165.836 79.4879 170.01 79.6928 173.895 78.5141C177.781 77.3354 181.137 74.8459 183.393 71.4698C185.649 68.0938 186.664 64.04 186.266 59.9993C185.868 55.9586 184.081 52.1809 181.21 49.3099" stroke="#071C2C" stroke-width="1.08" stroke-miterlimit="10"/>
<path d="M168.8 84.0702C181.132 84.0702 191.13 74.0727 191.13 61.7402C191.13 49.4076 181.132 39.4102 168.8 39.4102C156.467 39.4102 146.47 49.4076 146.47 61.7402C146.47 74.0727 156.467 84.0702 168.8 84.0702Z" stroke="#071C2C" stroke-width="1.08" stroke-miterlimit="10"/>
<path opacity="0.5" d="M168.8 69.02C172.821 69.02 176.08 65.7606 176.08 61.74C176.08 57.7193 172.821 54.46 168.8 54.46C164.779 54.46 161.52 57.7193 161.52 61.74C161.52 65.7606 164.779 69.02 168.8 69.02Z" fill="#1F64F6" fill-opacity="0.7"/>
<path d="M190.759 77.9641L185.031 83.6917L202.596 101.256L208.324 95.5286L190.759 77.9641Z" stroke="#071C2C" stroke-width="1.08" stroke-miterlimit="10"/>
<path d="M184.6 77.53L187.82 80.76" stroke="#071C2C" stroke-width="1.08" stroke-miterlimit="10"/>
</g>
<defs>
<clipPath id="clip0">
<rect width="209.09" height="103.8" fill="white"/>
</clipPath>
</defs>
</svg>
