<svg width="78" height="53" viewBox="0 0 78 53" fill="none" xmlns="http://www.w3.org/2000/svg">
<g clip-path="url(#clip0)">
<path opacity="0.7" d="M38.633 7.56653C32.2894 10.9955 27.9575 18.8249 27.9575 26.5057C27.9575 34.1865 32.2894 41.936 38.633 45.3077C44.9765 41.8788 49.3084 34.198 49.3084 26.5057C49.3084 18.8135 44.9765 10.9383 38.633 7.56653Z" fill="#1F64F6"/>
<path d="M25.3743 31.7291C26.6635 38.0113 30.2337 43.5934 35.396 47.3985C40.5583 51.2036 46.9469 52.9619 53.3293 52.3343C59.7116 51.7068 65.6354 48.7377 69.9577 44C74.28 39.2623 76.6945 33.0916 76.7354 26.6787C76.7763 20.2657 74.4406 14.0648 70.1791 9.27232C65.9176 4.47987 60.0322 1.4355 53.6583 0.72658C47.2845 0.0176544 40.874 1.69441 35.6636 5.43334C30.4532 9.17227 26.8121 14.7084 25.4428 20.9737" stroke="#071C2C" stroke-miterlimit="10"/>
<path d="M51.9028 21.2823C50.6094 15.0144 47.0421 9.44686 41.8882 5.65249C36.7343 1.85813 30.3585 0.105379 23.9893 0.731957C17.6201 1.35854 11.7081 4.32011 7.39236 9.04605C3.07667 13.772 0.662658 19.9279 0.615452 26.3277C0.568246 32.7275 2.89118 38.9184 7.13669 43.7075C11.3822 48.4966 17.2499 51.545 23.6092 52.2655C29.9685 52.986 36.3694 51.3275 41.5787 47.6095C46.788 43.8916 50.4371 38.3773 51.8228 32.1292" stroke="#071C2C" stroke-miterlimit="10"/>
<path d="M58.8293 35.4667L67.7903 26.5057L58.8293 17.5333" stroke="#071C2C" stroke-miterlimit="10"/>
<path d="M67.0932 26.5057H11.0757" stroke="#071C2C" stroke-miterlimit="10"/>
<path d="M18.5279 17.5333L9.56689 26.5057L18.5279 35.4667" stroke="#071C2C" stroke-miterlimit="10"/>
</g>
<defs>
<clipPath id="clip0">
<rect width="77.2883" height="53" fill="white"/>
</clipPath>
</defs>
</svg>
