<svg width="45" height="41" viewBox="0 0 45 41" fill="none" xmlns="http://www.w3.org/2000/svg">
<g clip-path="url(#clip0)">
<path d="M5.98828 35.1778V19.6268" stroke="#071C2C" stroke-linecap="round" stroke-linejoin="round"/>
<path d="M11.6731 35.1778V19.6268" stroke="#071C2C" stroke-linecap="round" stroke-linejoin="round"/>
<path d="M19.2441 35.1778V19.6268" stroke="#071C2C" stroke-linecap="round" stroke-linejoin="round"/>
<path d="M24.916 35.1778V19.6268" stroke="#071C2C" stroke-linecap="round" stroke-linejoin="round"/>
<path d="M32.4868 35.1778V19.6268" stroke="#071C2C" stroke-linecap="round" stroke-linejoin="round"/>
<path d="M38.1587 35.1778V19.6268" stroke="#071C2C" stroke-linecap="round" stroke-linejoin="round"/>
<path d="M22.08 0.659546L43.527 19.6268H0.659424L22.08 0.659546Z" stroke="#071C2C" stroke-linecap="round" stroke-linejoin="round"/>
<path d="M42.8938 35.679H1.25293V39.702H42.8938V35.679Z" stroke="#071C2C" stroke-linecap="round" stroke-linejoin="round"/>
<path d="M24.1113 8.70545C23.5511 8.14421 22.8054 7.80655 22.0141 7.75577C21.5916 7.72759 21.172 7.84236 20.8227 8.08161C20.4734 8.32086 20.2147 8.67068 20.0883 9.07477C19.8641 10.0772 20.4708 10.8027 22.4625 11.4754C24.4542 12.148 24.7048 13.2428 24.2828 14.1134C24.0685 14.5106 23.7326 14.8288 23.3243 15.0211C22.916 15.2133 22.4568 15.2697 22.0141 15.1817C21.1177 15.105 20.2857 14.6843 19.6926 14.0078" stroke="#071C2C" stroke-linecap="round" stroke-linejoin="round"/>
<path d="M22.0139 7.75573V6.26526" stroke="#071C2C" stroke-linecap="round" stroke-linejoin="round"/>
<path d="M22.0139 16.7513V15.2609" stroke="#071C2C" stroke-linecap="round" stroke-linejoin="round"/>
</g>
<defs>
<clipPath id="clip0">
<rect width="44.1601" height="40.3614" fill="white"/>
</clipPath>
</defs>
</svg>
