<?xml version="1.0" encoding="utf-8"?>
<!-- Generator: Adobe Illustrator 26.0.1, SVG Export Plug-In . SVG Version: 6.00 Build 0)  -->
<svg version="1.1" id="Layer_1" xmlns="http://www.w3.org/2000/svg" xmlns:xlink="http://www.w3.org/1999/xlink" x="0px" y="0px"
	 viewBox="0 0 24 24" style="enable-background:new 0 0 24 24;" xml:space="preserve">
<style type="text/css">
	.st0{fill-rule:evenodd;clip-rule:evenodd;fill:#FFFFFF;}
</style>
<path class="st0" d="M16,11.7l-6.5,3.5V9.9V8.2l2.9,1.6L16,11.7z M23.8,7c0,0-0.2-1.7-1-2.5c-0.9-1-1.9-1-2.4-1.1
	C17,3.2,12,3.2,12,3.2h0c0,0-5,0-8.4,0.2C3.1,3.5,2.1,3.5,1.2,4.5C0.5,5.3,0.2,7,0.2,7S0,9,0,11v0.2v1.7C0,15,0.2,17,0.2,17
	s0.2,1.7,0.9,2.5c0.9,1,2.1,1,2.7,1.1c1.9,0.2,8.2,0.2,8.2,0.2s5,0,8.4-0.3c0.5-0.1,1.5-0.1,2.4-1.1c0.7-0.8,1-2.5,1-2.5
	s0.2-2,0.2-4.1v-1.5V11C24,9,23.8,7,23.8,7L23.8,7z"/>
</svg>
