<svg width="84" height="72" viewBox="0 0 84 72" fill="none" xmlns="http://www.w3.org/2000/svg">
<path d="M6.30041 70.9921C7.38504 70.9921 8.44531 70.6704 9.34715 70.0678C10.249 69.4652 10.9519 68.6088 11.367 67.6067C11.782 66.6046 11.8906 65.502 11.679 64.4382C11.4674 63.3744 10.9451 62.3972 10.1782 61.6303C9.41123 60.8633 8.43407 60.341 7.37028 60.1294C6.30649 59.9178 5.20384 60.0264 4.20177 60.4415C3.1997 60.8566 2.34322 61.5595 1.74063 62.4613C1.13804 63.3631 0.816406 64.4234 0.816406 65.508C0.816406 66.9625 1.39418 68.3574 2.42263 69.3858C3.45108 70.4143 4.84596 70.9921 6.30041 70.9921Z" stroke="#071C2C" stroke-linejoin="round"/>
<path d="M25.9679 51.312C27.0525 51.312 28.1128 50.9904 29.0146 50.3878C29.9165 49.7852 30.6194 48.9287 31.0345 47.9266C31.4495 46.9246 31.5581 45.8219 31.3465 44.7581C31.1349 43.6943 30.6126 42.7172 29.8457 41.9502C29.0787 41.1833 28.1016 40.661 27.0378 40.4494C25.974 40.2378 24.8713 40.3464 23.8693 40.7614C22.8672 41.1765 22.0107 41.8794 21.4081 42.7813C20.8055 43.6831 20.4839 44.7434 20.4839 45.828C20.4823 46.5486 20.6231 47.2624 20.8981 47.9285C21.1732 48.5946 21.577 49.1998 22.0866 49.7093C22.5962 50.2189 23.2013 50.6227 23.8674 50.8978C24.5335 51.1728 25.2473 51.3136 25.9679 51.312Z" stroke="#071C2C" stroke-linejoin="round"/>
<path d="M45.6002 31.6319C46.6848 31.6319 47.7451 31.3103 48.647 30.7077C49.5488 30.1051 50.2517 29.2486 50.6668 28.2466C51.0818 27.2445 51.1904 26.1419 50.9788 25.0781C50.7672 24.0143 50.2449 23.0371 49.478 22.2702C48.711 21.5032 47.7339 20.9809 46.6701 20.7693C45.6063 20.5577 44.5036 20.6663 43.5016 21.0814C42.4995 21.4965 41.643 22.1994 41.0404 23.1012C40.4378 24.003 40.1162 25.0633 40.1162 26.1479C40.1162 27.6024 40.694 28.9973 41.7224 30.0257C42.7509 31.0542 44.1458 31.6319 45.6002 31.6319Z" stroke="#071C2C" stroke-linejoin="round"/>
<path d="M65.316 12C66.4007 12 67.4609 11.6784 68.3628 11.0758C69.2646 10.4732 69.9675 9.61669 70.3826 8.61462C70.7977 7.61255 70.9063 6.5099 70.6947 5.44611C70.4831 4.38232 69.9608 3.40516 69.1938 2.63821C68.4269 1.87126 67.4497 1.34896 66.3859 1.13736C65.3221 0.925757 64.2195 1.03436 63.2174 1.44943C62.2153 1.8645 61.3588 2.5674 60.7563 3.46924C60.1537 4.37108 59.832 5.43135 59.832 6.51599C59.8352 7.96946 60.414 9.36249 61.4418 10.3903C62.4695 11.418 63.8626 11.9968 65.316 12Z" stroke="#071C2C" stroke-linejoin="round"/>
<path d="M38.4 70.9921C39.4846 70.9921 40.5449 70.6704 41.4468 70.0678C42.3486 69.4652 43.0515 68.6088 43.4666 67.6067C43.8816 66.6046 43.9902 65.502 43.7786 64.4382C43.567 63.3744 43.0447 62.3972 42.2778 61.6303C41.5108 60.8633 40.5337 60.341 39.4699 60.1294C38.4061 59.9178 37.3034 60.0264 36.3014 60.4415C35.2993 60.8566 34.4428 61.5595 33.8402 62.4613C33.2376 63.3631 32.916 64.4234 32.916 65.508C32.916 66.9625 33.4938 68.3574 34.5222 69.3858C35.5507 70.4143 36.9456 70.9921 38.4 70.9921Z" stroke="#071C2C" stroke-linejoin="round"/>
<path d="M58.0319 51.312C59.1165 51.312 60.1768 50.9904 61.0786 50.3878C61.9804 49.7852 62.6833 48.9287 63.0984 47.9266C63.5135 46.9246 63.6221 45.8219 63.4105 44.7581C63.1989 43.6943 62.6766 42.7172 61.9096 41.9502C61.1427 41.1833 60.1655 40.661 59.1017 40.4494C58.0379 40.2378 56.9353 40.3464 55.9332 40.7614C54.9311 41.1765 54.0747 41.8794 53.4721 42.7813C52.8695 43.6831 52.5479 44.7434 52.5479 45.828C52.5479 47.2824 53.1256 48.6773 54.1541 49.7058C55.1825 50.7342 56.5774 51.312 58.0319 51.312Z" stroke="#071C2C" stroke-linejoin="round"/>
<path d="M77.7003 31.6319C78.785 31.6319 79.8452 31.3103 80.7471 30.7077C81.6489 30.1051 82.3518 29.2486 82.7669 28.2466C83.1819 27.2445 83.2905 26.1419 83.0789 25.0781C82.8673 24.0143 82.345 23.0371 81.5781 22.2702C80.8111 21.5032 79.834 20.9809 78.7702 20.7693C77.7064 20.5577 76.6038 20.6663 75.6017 21.0814C74.5996 21.4965 73.7431 22.1994 73.1405 23.1012C72.538 24.003 72.2163 25.0633 72.2163 26.1479C72.2147 26.8686 72.3555 27.5824 72.6305 28.2484C72.9056 28.9145 73.3095 29.5197 73.819 30.0292C74.3286 30.5388 74.9338 30.9427 75.5998 31.2177C76.2659 31.4928 76.9797 31.6335 77.7003 31.6319Z" stroke="#071C2C" stroke-linejoin="round"/>
<path d="M9.97217 61.476L21.9722 49.476" stroke="#071C2C" stroke-linejoin="round"/>
<path d="M30 41.4L41.94 29.4" stroke="#071C2C" stroke-linejoin="round"/>
<path d="M49.3076 22.1279L61.2476 10.1279" stroke="#071C2C" stroke-linejoin="round"/>
<path d="M11.7598 65.5079H32.8798" stroke="#071C2C" stroke-linejoin="round"/>
<path d="M32.0039 45.8279H53.1119" stroke="#071C2C" stroke-linejoin="round"/>
<path d="M51.168 26.1481H72.264" stroke="#071C2C" stroke-linejoin="round"/>
<path d="M65.316 9.20403C65.8524 9.20403 66.3767 9.04498 66.8227 8.74698C67.2687 8.44898 67.6163 8.02542 67.8216 7.52987C68.0268 7.03431 68.0805 6.48902 67.9759 5.96295C67.8713 5.43687 67.613 4.95364 67.2337 4.57436C66.8544 4.19508 66.3712 3.93678 65.8451 3.83214C65.319 3.7275 64.7737 3.7812 64.2782 3.98647C63.7826 4.19173 63.3591 4.53934 63.0611 4.98532C62.7631 5.43131 62.604 5.95565 62.604 6.49203C62.604 7.2113 62.8897 7.9011 63.3983 8.4097C63.9069 8.9183 64.5967 9.20403 65.316 9.20403Z" fill="#4080FF"/>
<path d="M77.7003 28.86C78.2367 28.86 78.761 28.701 79.207 28.403C79.653 28.105 80.0006 27.6814 80.2058 27.1859C80.4111 26.6903 80.4648 26.145 80.3602 25.619C80.2555 25.0929 79.9972 24.6096 79.618 24.2304C79.2387 23.8511 78.7554 23.5928 78.2294 23.4881C77.7033 23.3835 77.158 23.4372 76.6624 23.6425C76.1669 23.8477 75.7433 24.1953 75.4453 24.6413C75.1473 25.0873 74.9883 25.6117 74.9883 26.148C74.9883 26.8673 75.274 27.5571 75.7826 28.0657C76.2912 28.5743 76.981 28.86 77.7003 28.86Z" fill="#4080FF"/>
<path d="M58.0323 48.5401C58.5687 48.5401 59.093 48.381 59.539 48.083C59.985 47.785 60.3326 47.3615 60.5379 46.8659C60.7431 46.3704 60.7968 45.8251 60.6922 45.299C60.5876 44.7729 60.3293 44.2897 59.95 43.9104C59.5707 43.5311 59.0875 43.2728 58.5614 43.1682C58.0353 43.0636 57.49 43.1173 56.9945 43.3225C56.4989 43.5278 56.0754 43.8754 55.7774 44.3214C55.4794 44.7674 55.3203 45.2917 55.3203 45.8281C55.3203 46.5474 55.606 47.2372 56.1146 47.7458C56.6232 48.2544 57.313 48.5401 58.0323 48.5401Z" fill="#4080FF"/>
<path d="M38.4005 68.2199C38.9369 68.2199 39.4612 68.0608 39.9072 67.7628C40.3532 67.4649 40.7008 67.0413 40.906 66.5457C41.1113 66.0502 41.165 65.5049 41.0604 64.9788C40.9557 64.4527 40.6974 63.9695 40.3181 63.5902C39.9389 63.2109 39.4556 62.9527 38.9296 62.848C38.4035 62.7434 37.8582 62.7971 37.3626 63.0023C36.8671 63.2076 36.4435 63.5552 36.1455 64.0012C35.8475 64.4472 35.6885 64.9715 35.6885 65.5079C35.6885 66.2272 35.9742 66.917 36.4828 67.4256C36.9914 67.9342 37.6812 68.2199 38.4005 68.2199Z" fill="#4080FF"/>
</svg>
