<svg width="46" height="47" viewBox="0 0 46 47" fill="none" xmlns="http://www.w3.org/2000/svg">
<g clip-path="url(#clip0)">
<path d="M9.74731 36.5495V30.9306H17.5558V15.9467H9.74731V10.3278" stroke="#071C2C" stroke-linecap="round" stroke-linejoin="round"/>
<path d="M17.5557 23.4386H6.35742" stroke="#071C2C" stroke-linecap="round" stroke-linejoin="round"/>
<path d="M12.5965 7.47871C12.6053 7.10518 12.5401 6.73361 12.4048 6.38535C12.2695 6.03708 12.0667 5.71898 11.8081 5.44933C11.5495 5.17968 11.2401 4.96379 10.8978 4.81407C10.5555 4.66435 10.187 4.58375 9.81342 4.5769C9.04595 4.58379 8.31186 4.89172 7.76915 5.43443C7.22644 5.97714 6.9185 6.71123 6.91162 7.47871C6.96072 8.19911 7.28154 8.874 7.80919 9.36691C8.33685 9.85983 9.03199 10.134 9.75407 10.134C10.4761 10.134 11.1713 9.85983 11.6989 9.36691C12.2266 8.874 12.5474 8.19911 12.5965 7.47871Z" stroke="#071C2C" stroke-linecap="round" stroke-linejoin="round"/>
<path d="M6.35751 23.4386C6.3645 23.0644 6.29771 22.6926 6.16096 22.3442C6.02421 21.9959 5.82017 21.6779 5.5605 21.4084C5.30082 21.139 4.99061 20.9233 4.64757 20.7737C4.30453 20.6242 3.93539 20.5437 3.56123 20.5368C2.79481 20.547 2.06266 20.8561 1.52067 21.398C0.97868 21.94 0.669667 22.6722 0.659424 23.4386C0.659424 24.1942 0.95959 24.9189 1.49389 25.4532C2.02819 25.9875 2.75285 26.2876 3.50847 26.2876C4.26408 26.2876 4.98874 25.9875 5.52304 25.4532C6.05734 24.9189 6.35751 24.1942 6.35751 23.4386Z" stroke="#071C2C" stroke-linecap="round" stroke-linejoin="round"/>
<path d="M9.74724 42.2476C11.3207 42.2476 12.5963 40.972 12.5963 39.3985C12.5963 37.8251 11.3207 36.5495 9.74724 36.5495C8.17375 36.5495 6.89819 37.8251 6.89819 39.3985C6.89819 40.972 8.17375 42.2476 9.74724 42.2476Z" stroke="#071C2C" stroke-linecap="round" stroke-linejoin="round"/>
<path d="M36.1801 10.3278V15.9467H28.3716V30.9306H36.1801V36.5495" stroke="#071C2C" stroke-linecap="round" stroke-linejoin="round"/>
<path d="M28.3716 23.4386H39.5831" stroke="#071C2C" stroke-linecap="round" stroke-linejoin="round"/>
<path d="M36.1801 42.2476C37.7536 42.2476 39.0291 40.972 39.0291 39.3985C39.0291 37.8251 37.7536 36.5495 36.1801 36.5495C34.6066 36.5495 33.3311 37.8251 33.3311 39.3985C33.3311 40.972 34.6066 42.2476 36.1801 42.2476Z" stroke="#071C2C" stroke-linecap="round" stroke-linejoin="round"/>
<path d="M42.432 26.2877C44.0055 26.2877 45.2811 25.0121 45.2811 23.4386C45.2811 21.8652 44.0055 20.5896 42.432 20.5896C40.8586 20.5896 39.583 21.8652 39.583 23.4386C39.583 25.0121 40.8586 26.2877 42.432 26.2877Z" stroke="#071C2C" stroke-linecap="round" stroke-linejoin="round"/>
<path d="M33.3442 7.47871C33.3547 8.03756 33.5293 8.581 33.8463 9.04135C34.1633 9.5017 34.6088 9.85863 35.1272 10.0677C35.6455 10.2768 36.214 10.3287 36.7617 10.2171C37.3094 10.1055 37.8121 9.83526 38.2074 9.44003C38.6026 9.04479 38.8728 8.54202 38.9845 7.99432C39.0961 7.44663 39.0441 6.8782 38.835 6.35982C38.626 5.84144 38.269 5.396 37.8087 5.07898C37.3483 4.76196 36.8049 4.58735 36.246 4.5769C35.4786 4.58379 34.7445 4.89172 34.2018 5.43443C33.6591 5.97714 33.3511 6.71123 33.3442 7.47871Z" stroke="#071C2C" stroke-linecap="round" stroke-linejoin="round"/>
<path d="M22.9639 6.38397V40.4933" stroke="#071C2C" stroke-linecap="round" stroke-linejoin="round"/>
<path d="M25.8128 3.56129C25.827 2.80788 25.5421 2.07954 25.0205 1.5357C24.4989 0.991851 23.7831 0.676795 23.0297 0.659485C22.2633 0.669728 21.5312 0.978741 20.9892 1.52073C20.4472 2.06272 20.1382 2.79487 20.1279 3.56129C20.1014 3.95085 20.1552 4.3417 20.286 4.7096C20.4168 5.07749 20.6219 5.41457 20.8884 5.6999C21.155 5.98523 21.4773 6.21273 21.8355 6.36827C22.1936 6.52381 22.5799 6.60407 22.9704 6.60407C23.3608 6.60407 23.7471 6.52381 24.1053 6.36827C24.4634 6.21273 24.7858 5.98523 25.0523 5.6999C25.3189 5.41457 25.5239 5.07749 25.6547 4.7096C25.7856 4.3417 25.8394 3.95085 25.8128 3.56129V3.56129Z" stroke="#071C2C" stroke-linecap="round" stroke-linejoin="round"/>
<path d="M25.8128 43.3687C25.827 42.6153 25.5421 41.887 25.0205 41.3431C24.4989 40.7993 23.7831 40.4842 23.0297 40.4669C22.2633 40.4772 21.5312 40.7862 20.9892 41.3282C20.4472 41.8702 20.1382 42.6023 20.1279 43.3687C20.1014 43.7583 20.1552 44.1491 20.286 44.517C20.4168 44.8849 20.6219 45.222 20.8884 45.5073C21.155 45.7927 21.4773 46.0202 21.8355 46.1757C22.1936 46.3312 22.5799 46.4115 22.9704 46.4115C23.3608 46.4115 23.7471 46.3312 24.1053 46.1757C24.4634 46.0202 24.7858 45.7927 25.0523 45.5073C25.3189 45.222 25.5239 44.8849 25.6547 44.517C25.7856 44.1491 25.8394 43.7583 25.8128 43.3687V43.3687Z" stroke="#071C2C" stroke-linecap="round" stroke-linejoin="round"/>
</g>
<defs>
<clipPath id="clip0">
<rect width="45.9408" height="46.8773" fill="white"/>
</clipPath>
</defs>
</svg>
