<svg width="74" height="73" viewBox="0 0 74 73" fill="none" xmlns="http://www.w3.org/2000/svg">
<path opacity="0.7" d="M50.323 34.6508C49.9861 32.189 48.9586 29.869 47.3564 27.9526C45.7541 26.0362 43.6409 24.5996 41.255 23.8049C38.8692 23.0102 36.3057 22.8891 33.8537 23.4552C31.4018 24.0212 29.159 25.252 27.3784 27.0085C25.5978 28.7651 24.3502 30.9775 23.7764 33.3963C23.2026 35.8151 23.3254 38.344 24.1309 40.6976C24.9365 43.0512 26.3927 45.1359 28.3354 46.7165C30.2781 48.2971 32.6299 49.3107 35.1254 49.643C35.8647 45.9385 37.7046 42.5347 40.411 39.865C43.1173 37.1952 46.5677 35.3802 50.323 34.6508Z" fill="#1F64F6"/>
<g opacity="0.5">
<path opacity="0.7" d="M19.9532 6.35425H19.752L6.4541 19.4848C6.4541 19.5469 6.4541 19.6213 6.4541 19.6834C6.458 20.1768 6.48739 20.6698 6.54217 21.1603L21.4504 6.44112C20.9531 6.38709 20.4535 6.35809 19.9532 6.35425Z" fill="#1F64F6"/>
<path opacity="0.7" d="M8.80669 12.1501C8.07019 13.2125 7.49386 14.3746 7.0957 15.6003L15.8142 6.99963C14.5717 7.39241 13.3936 7.96095 12.3167 8.6875L8.80669 12.1501Z" fill="#1F64F6"/>
<path opacity="0.7" d="M32.1944 14.0985L14.292 31.759C14.7003 31.9541 15.1205 32.124 15.5501 32.2678L19.664 28.2095C21.5575 24.3687 24.7028 21.2658 28.5963 19.3979L32.7102 15.3396C32.5644 14.9158 32.3921 14.5013 32.1944 14.0985Z" fill="#1F64F6"/>
<path opacity="0.7" d="M25.4382 7.50843C25.029 7.32238 24.6089 7.16075 24.1801 7.02441L7.12061 23.8286C7.25881 24.2516 7.42266 24.666 7.61126 25.0696L25.4382 7.50843Z" fill="#1F64F6"/>
<path opacity="0.7" d="M30.9994 12.0384C30.7484 11.6941 30.4796 11.3627 30.1942 11.0455L11.1973 29.7858C11.5194 30.0588 11.8553 30.3157 12.2037 30.5552L30.9994 12.0384Z" fill="#1F64F6"/>
<path opacity="0.7" d="M28.5584 9.43214C28.2366 9.16645 27.9006 8.91788 27.552 8.6875L8.80664 27.1795C9.04426 27.5238 9.30044 27.8552 9.57407 28.1724L28.5584 9.43214Z" fill="#1F64F6"/>
</g>
<path d="M39.1389 17.7226C38.7678 14.1449 37.3778 10.7439 35.1296 7.91285C32.8813 5.08182 29.8667 2.93641 26.4342 1.72471C23.0018 0.513002 19.2917 0.28451 15.7331 1.06565C12.1746 1.84679 8.91282 3.60566 6.32508 6.13885C3.73734 8.67204 1.92932 11.8761 1.1101 15.3804C0.290888 18.8848 0.49394 22.5464 1.69578 25.9417C2.89762 29.337 5.04915 32.3273 7.90156 34.5669C10.754 36.8065 14.1908 38.2039 17.8145 38.5974" stroke="#071C2C" stroke-miterlimit="10"/>
<path d="M56.1983 34.4025C55.7127 30.0965 53.7547 26.0822 50.6469 23.0208C47.539 19.9595 43.4668 18.0339 39.1011 17.5612" stroke="#071C2C" stroke-miterlimit="10"/>
<path d="M39.1011 17.5612C38.4092 17.4991 37.7047 17.4495 37.0001 17.4495C32.0583 17.4462 27.3033 19.312 23.7138 22.6628C20.1244 26.0136 17.9737 30.5944 17.7045 35.4622C17.4353 40.33 19.068 45.1143 22.2666 48.8305C25.4653 52.5466 29.9863 54.9116 34.8992 55.4388" stroke="#071C2C" stroke-miterlimit="10"/>
<path d="M54.0722 72.3919C64.7376 72.3919 73.3837 63.8627 73.3837 53.3414C73.3837 42.8201 64.7376 34.2909 54.0722 34.2909C43.4068 34.2909 34.7607 42.8201 34.7607 53.3414C34.7607 63.8627 43.4068 72.3919 54.0722 72.3919Z" stroke="#071C2C" stroke-miterlimit="10"/>
<path opacity="0.7" d="M54.0723 66.6705C61.5346 66.6705 67.584 60.7028 67.584 53.3413C67.584 45.9799 61.5346 40.0122 54.0723 40.0122C46.61 40.0122 40.5605 45.9799 40.5605 53.3413C40.5605 60.7028 46.61 66.6705 54.0723 66.6705Z" stroke="#1F64F6" stroke-miterlimit="10"/>
</svg>
