<svg width="14" height="11" viewBox="0 0 14 11" fill="none" xmlns="http://www.w3.org/2000/svg">
<path fill-rule="evenodd" clip-rule="evenodd" d="M0 5.25C0 4.83579 0.335786 4.5 0.75 4.5H12.75C13.1642 4.5 13.5 4.83579 13.5 5.25C13.5 5.66421 13.1642 6 12.75 6H0.75C0.335786 6 0 5.66421 0 5.25Z" fill="#071C2C"/>
<path fill-rule="evenodd" clip-rule="evenodd" d="M7.71967 0.21967C8.01256 -0.0732233 8.48744 -0.0732233 8.78033 0.21967L13.2803 4.71967C13.5732 5.01256 13.5732 5.48744 13.2803 5.78033L8.78033 10.2803C8.48744 10.5732 8.01256 10.5732 7.71967 10.2803C7.42678 9.98744 7.42678 9.51256 7.71967 9.21967L11.6893 5.25L7.71967 1.28033C7.42678 0.987437 7.42678 0.512563 7.71967 0.21967Z" fill="#071C2C"/>
</svg>
