<svg width="62" height="62" viewBox="0 0 62 62" fill="none" xmlns="http://www.w3.org/2000/svg">
<path d="M61.4775 0.522461H0.522461V61.4775H61.4775V0.522461Z" stroke="#071C2C" stroke-miterlimit="10"/>
<path d="M10.5547 17.5874H16.0932" stroke="#071C2C" stroke-miterlimit="10"/>
<path d="M10.5547 44.4021H27.1598" stroke="#071C2C" stroke-miterlimit="10"/>
<path d="M23.7739 17.5874H51.4456" stroke="#071C2C" stroke-miterlimit="10"/>
<path d="M34.8403 44.4021H51.4454" stroke="#071C2C" stroke-miterlimit="10"/>
<path d="M51.4455 30.9948H45.8965" stroke="#071C2C" stroke-miterlimit="10"/>
<path opacity="0.7" d="M19.9387 21.4225C22.0568 21.4225 23.7738 19.7055 23.7738 17.5874C23.7738 15.4693 22.0568 13.7522 19.9387 13.7522C17.8206 13.7522 16.1035 15.4693 16.1035 17.5874C16.1035 19.7055 17.8206 21.4225 19.9387 21.4225Z" fill="#1F64F6" stroke="#1F64F6" stroke-miterlimit="10"/>
<path d="M38.2264 30.9948H10.5547" stroke="#071C2C" stroke-miterlimit="10"/>
<path opacity="0.7" d="M42.0612 34.8299C44.1793 34.8299 45.8964 33.1128 45.8964 30.9947C45.8964 28.8766 44.1793 27.1595 42.0612 27.1595C39.9431 27.1595 38.2261 28.8766 38.2261 30.9947C38.2261 33.1128 39.9431 34.8299 42.0612 34.8299Z" fill="#1F64F6" stroke="#1F64F6" stroke-miterlimit="10"/>
<path opacity="0.7" d="M30.9948 48.2372C33.1129 48.2372 34.83 46.5202 34.83 44.4021C34.83 42.284 33.1129 40.5669 30.9948 40.5669C28.8767 40.5669 27.1597 42.284 27.1597 44.4021C27.1597 46.5202 28.8767 48.2372 30.9948 48.2372Z" fill="#1F64F6" stroke="#1F64F6" stroke-miterlimit="10"/>
</svg>
