<svg width="217" height="112" viewBox="0 0 217 112" fill="none" xmlns="http://www.w3.org/2000/svg">
<g clip-path="url(#clip0)">
<path opacity="0.5" d="M146 57H47V70H146V57Z" fill="#1F64F6" fill-opacity="0.7"/>
<path d="M69.1899 63.8501H77.5599" stroke="white" stroke-width="1.08" stroke-miterlimit="10"/>
<path d="M110.8 64.04H132.17" stroke="white" stroke-width="1.08" stroke-miterlimit="10"/>
<path d="M58 67L64 61" stroke="white" stroke-width="1.08" stroke-miterlimit="10"/>
<path d="M58 61L64 67" stroke="white" stroke-width="1.08" stroke-miterlimit="10"/>
<path d="M83.4001 64.04H104.76" stroke="white" stroke-width="1.08" stroke-miterlimit="10"/>
<path d="M152.33 47.68C158.599 41.4281 166.987 37.7587 175.834 37.3984C184.68 37.0382 193.339 40.0134 200.096 45.7347C206.852 51.4561 211.214 59.5064 212.316 68.2911C213.419 77.0757 211.182 85.9541 206.048 93.1676C200.915 100.381 193.26 105.404 184.599 107.241C175.938 109.078 166.903 107.595 159.283 103.086C151.664 98.5769 146.016 91.3709 143.458 82.8949C140.899 74.419 141.618 65.2914 145.47 57.32" fill="white"/>
<path d="M177.4 32.24V7.29004H0.540039V103.25H147.25" stroke="#071C2C" stroke-width="1.08" stroke-miterlimit="10"/>
<path d="M47 20.0901V103.25" stroke="#071C2C" stroke-width="1.08" stroke-miterlimit="10"/>
<path d="M177.4 0.540039H0.540039V7.29004H177.4V0.540039Z" fill="#071C2C" stroke="#071C2C" stroke-width="1.08" stroke-miterlimit="10"/>
<path d="M0.540039 20.0901H166.05" stroke="#071C2C" stroke-width="1.08" stroke-miterlimit="10"/>
<path opacity="0.5" d="M169 64.32C170.386 62.9343 172.093 61.9117 173.969 61.3429C175.844 60.7742 177.831 60.6767 179.754 61.0592C181.676 61.4417 183.475 62.2924 184.99 63.5359C186.505 64.7793 187.69 66.3773 188.44 68.1881C189.19 69.999 189.482 71.9668 189.29 73.9175C189.098 75.8681 188.428 77.7413 187.339 79.3712C186.251 81.0011 184.777 82.3373 183.048 83.2616C181.32 84.1858 179.39 84.6696 177.43 84.67V108.19C183.26 108.191 189.001 106.753 194.143 104.005C199.285 101.257 203.67 97.2831 206.909 92.4354C210.149 87.5877 212.142 82.0158 212.713 76.2135C213.285 70.4112 212.416 64.5575 210.184 59.1712C207.953 53.7848 204.427 49.032 199.92 45.3339C195.412 41.6357 190.062 39.1064 184.344 37.97C178.625 36.8335 172.715 37.1251 167.136 38.8189C161.557 40.5126 156.482 43.5562 152.36 47.68L169 64.32Z" fill="#1F64F6" fill-opacity="0.7" stroke="white" stroke-width="7.5" stroke-miterlimit="10"/>
<path d="M160.32 55.6601C164.593 51.4041 170.308 48.908 176.334 48.6661C182.36 48.4242 188.257 50.4541 192.857 54.3538C197.458 58.2535 200.426 63.7386 201.174 69.7228C201.921 75.7071 200.395 81.7539 196.896 86.6659C193.397 91.5779 188.181 94.9968 182.281 96.2454C176.381 97.494 170.227 96.4814 165.038 93.408C159.849 90.3346 156.004 85.4246 154.263 79.6505C152.523 73.8763 153.014 67.6591 155.64 62.2301" stroke="#071C2C" stroke-width="1.08" stroke-miterlimit="10"/>
<path d="M169.2 64.0901C171.353 62.0467 174.189 60.8783 177.157 60.8127C180.124 60.7472 183.009 61.7892 185.25 63.7356C187.491 65.682 188.926 68.3932 189.277 71.3405C189.627 74.2878 188.867 77.26 187.145 79.6774C185.423 82.0949 182.862 83.7842 179.962 84.4161C177.062 85.048 174.031 84.5771 171.459 83.0952C168.887 81.6133 166.96 79.2268 166.052 76.4008C165.145 73.5749 165.322 70.5123 166.55 67.8101" stroke="#071C2C" stroke-width="1.08" stroke-miterlimit="10"/>
<path d="M177.4 75.72C179.04 75.72 180.37 74.3903 180.37 72.75C180.37 71.1097 179.04 69.78 177.4 69.78C175.76 69.78 174.43 71.1097 174.43 72.75C174.43 74.3903 175.76 75.72 177.4 75.72Z" stroke="#071C2C" stroke-width="1.08" stroke-miterlimit="10"/>
<path d="M148.47 43.8201L177.4 72.7501" stroke="#071C2C" stroke-width="1.08" stroke-miterlimit="10"/>
<path d="M177.4 37.48V59.7" stroke="#071C2C" stroke-width="1.08" stroke-miterlimit="10"/>
<path d="M177.4 85.8V108.02" stroke="#071C2C" stroke-width="1.08" stroke-miterlimit="10"/>
<path d="M212.67 72.75H190.45" stroke="#071C2C" stroke-width="1.08" stroke-miterlimit="10"/>
<path d="M164.35 72.75H142.13" stroke="#071C2C" stroke-width="1.08" stroke-miterlimit="10"/>
<path d="M12.21 48.4199H37.34" stroke="#071C2C" stroke-width="1.08" stroke-miterlimit="10"/>
<path d="M33 53.6399L38.22 48.4199L33 43.2" stroke="#071C2C" stroke-width="1.08" stroke-miterlimit="10"/>
<path d="M35.2001 37.5701H10.0701" stroke="#071C2C" stroke-width="1.08" stroke-miterlimit="10"/>
<path d="M14.42 32.3501L9.19995 37.5701L14.42 42.7901" stroke="#071C2C" stroke-width="1.08" stroke-miterlimit="10"/>
<path d="M69.1899 91.75H77.5599" stroke="#071C2C" stroke-width="1.08" stroke-miterlimit="10"/>
<path d="M110.8 91.9299H132.17" stroke="#071C2C" stroke-width="1.08" stroke-miterlimit="10"/>
<path d="M58.72 91.2001L59.9 92.3801L63.16 89.1101" stroke="#071C2C" stroke-width="1.08" stroke-miterlimit="10"/>
<path d="M83.4001 91.9299H104.76" stroke="#071C2C" stroke-width="1.08" stroke-miterlimit="10"/>
<path d="M69.1899 79.72H77.5599" stroke="#071C2C" stroke-width="1.08" stroke-miterlimit="10"/>
<path d="M110.8 79.9102H132.17" stroke="#071C2C" stroke-width="1.08" stroke-miterlimit="10"/>
<path d="M58.72 79.1801L59.9 80.3601L63.16 77.0901" stroke="#071C2C" stroke-width="1.08" stroke-miterlimit="10"/>
<path d="M83.4001 79.9102H104.76" stroke="#071C2C" stroke-width="1.08" stroke-miterlimit="10"/>
<path d="M69.1899 49.6001H77.5599" stroke="#071C2C" stroke-width="1.08" stroke-miterlimit="10"/>
<path d="M110.8 49.78H132.17" stroke="#071C2C" stroke-width="1.08" stroke-miterlimit="10"/>
<path d="M58.72 49.05L59.9 50.23L63.16 46.96" stroke="#071C2C" stroke-width="1.08" stroke-miterlimit="10"/>
<path d="M83.4001 49.78H104.76" stroke="#071C2C" stroke-width="1.08" stroke-miterlimit="10"/>
<path d="M69.1899 37.5701H77.5599" stroke="#071C2C" stroke-width="1.08" stroke-miterlimit="10"/>
<path d="M110.8 37.76H132.17" stroke="#071C2C" stroke-width="1.08" stroke-miterlimit="10"/>
<path d="M83.4001 37.76H104.76" stroke="#071C2C" stroke-width="1.08" stroke-miterlimit="10"/>
<path d="M58.72 37.0299L59.9 38.2099L63.16 34.9399" stroke="#071C2C" stroke-width="1.08" stroke-miterlimit="10"/>
<path d="M152.33 47.68C158.599 41.4281 166.987 37.7587 175.834 37.3984C184.68 37.0382 193.339 40.0134 200.096 45.7347C206.852 51.4561 211.214 59.5064 212.316 68.2911C213.419 77.0757 211.182 85.9541 206.048 93.1676C200.915 100.381 193.26 105.404 184.599 107.241C175.938 109.078 166.903 107.595 159.283 103.086C151.664 98.5769 146.016 91.3709 143.458 82.8949C140.899 74.419 141.618 65.2914 145.47 57.32" stroke="#071C2C" stroke-width="1.08" stroke-miterlimit="10"/>
</g>
<defs>
<clipPath id="clip0">
<rect width="216.6" height="111.95" fill="white"/>
</clipPath>
</defs>
</svg>
