<svg width="214" height="109" viewBox="0 0 214 109" fill="none" xmlns="http://www.w3.org/2000/svg">
<path d="M177.86 32.24V7.29004H1V103.25H138.37" stroke="#071C2C" stroke-width="1.08" stroke-miterlimit="10"/>
<path d="M68.6299 7.29004V103.25" stroke="#071C2C" stroke-width="1.08" stroke-miterlimit="10"/>
<path d="M1 91.27H56.18" stroke="#071C2C" stroke-width="1.08" stroke-miterlimit="10"/>
<path d="M177.86 0.540039H1V7.29004H177.86V0.540039Z" fill="#071C2C" stroke="#071C2C" stroke-width="1.08" stroke-miterlimit="10"/>
<path opacity="0.5" d="M23.2299 28.75V21.7901L17.1999 18.3L11.1699 21.7901V28.75L17.1999 32.2401L23.2299 28.75Z" fill="#1F64F6" fill-opacity="0.7"/>
<path d="M30.5601 21.75H51.9201" stroke="#071C2C" stroke-width="1.08" stroke-miterlimit="10"/>
<path d="M30.5601 29.1501H51.9201" stroke="#071C2C" stroke-width="1.08" stroke-miterlimit="10"/>
<path d="M1 46.4001H68.63" stroke="#071C2C" stroke-width="1.08" stroke-miterlimit="10"/>
<path opacity="0.5" d="M73.8601 96.71L84.6601 72.58L97.1301 77.99L114.71 57.01L133.41 63.23L171.63 32.24V96.67L73.8601 96.71Z" fill="#1F64F6" fill-opacity="0.7"/>
<path d="M210.353 37H145.647C144.737 37 144 37.7761 144 38.7336V53.2664C144 54.2239 144.737 55 145.647 55H210.353C211.263 55 212 54.2239 212 53.2664V38.7336C212 37.7761 211.263 37 210.353 37Z" fill="white"/>
<path d="M210.92 37.24H145.29C144.368 37.24 143.62 37.9877 143.62 38.91V52.91C143.62 53.8323 144.368 54.58 145.29 54.58H210.92C211.842 54.58 212.59 53.8323 212.59 52.91V38.91C212.59 37.9877 211.842 37.24 210.92 37.24Z" stroke="#071C2C" stroke-width="1.08" stroke-miterlimit="10"/>
<path d="M171.09 43.2342C171.09 42.8867 170.807 42.6043 170.46 42.6043C170.112 42.6043 169.83 42.8867 169.83 43.2342V45.6886H166.724V43.2342C166.724 42.8867 166.442 42.6043 166.094 42.6043C165.747 42.6043 165.464 42.8867 165.464 43.2342V49.457C165.464 49.8045 165.747 50.0869 166.094 50.0869C166.442 50.0869 166.724 49.8045 166.724 49.457V46.8397H169.83V49.457C169.83 49.8045 170.112 50.0869 170.46 50.0869C170.807 50.0869 171.09 49.8045 171.09 49.457V43.2342ZM174.192 43.2342C174.192 42.8867 173.91 42.6043 173.563 42.6043C173.215 42.6043 172.933 42.8867 172.933 43.2342V49.457C172.933 49.8045 173.215 50.0869 173.563 50.0869C173.91 50.0869 174.192 49.8045 174.192 49.457V43.2342ZM180.951 48.4036C180.527 48.838 179.963 49.0226 179.159 49.0226C177.715 49.0226 177.063 48.2515 177.063 46.351C177.063 44.5591 177.715 43.6686 179.159 43.6686C179.952 43.6686 180.419 43.9401 180.864 44.4288C181.005 44.5809 181.157 44.646 181.309 44.646C181.635 44.646 181.896 44.3854 181.896 44.0704C181.896 43.951 181.863 43.8424 181.776 43.7121C181.331 43.0605 180.473 42.5392 179.159 42.5392C176.998 42.5392 175.76 43.7772 175.76 46.351C175.76 49.0117 176.998 50.152 179.159 50.152C180.321 50.152 181.472 49.6633 181.993 48.9683C182.124 48.8054 182.178 48.6425 182.178 48.3927V46.6551C182.178 46.3402 181.885 46.0795 181.581 46.0795H179.474C179.17 46.0795 178.92 46.3293 178.92 46.6334C178.92 46.9375 179.17 47.1873 179.474 47.1873H180.951V48.4036ZM189.539 43.2342C189.539 42.8867 189.257 42.6043 188.909 42.6043C188.562 42.6043 188.279 42.8867 188.279 43.2342V45.6886H185.173V43.2342C185.173 42.8867 184.891 42.6043 184.543 42.6043C184.196 42.6043 183.914 42.8867 183.914 43.2342V49.457C183.914 49.8045 184.196 50.0869 184.543 50.0869C184.891 50.0869 185.173 49.8045 185.173 49.457V46.8397H188.279V49.457C188.279 49.8045 188.562 50.0869 188.909 50.0869C189.257 50.0869 189.539 49.8045 189.539 49.457V43.2342Z" fill="#071C2C"/>
<path d="M210.353 64H145.647C144.737 64 144 64.733 144 65.6373V79.3627C144 80.267 144.737 81 145.647 81H210.353C211.263 81 212 80.267 212 79.3627V65.6373C212 64.733 211.263 64 210.353 64Z" fill="white"/>
<path d="M210.92 64.0701H145.29C144.368 64.0701 143.62 64.8178 143.62 65.7401V79.7401C143.62 80.6624 144.368 81.4101 145.29 81.4101H210.92C211.842 81.4101 212.59 80.6624 212.59 79.7401V65.7401C212.59 64.8178 211.842 64.0701 210.92 64.0701Z" stroke="#071C2C" stroke-width="1.08" stroke-miterlimit="10"/>
<path d="M161.21 74.8488C161.427 74.8488 161.634 74.7402 161.742 74.5448L163.447 71.5148V75.4679C163.447 75.8045 163.73 76.0869 164.066 76.0869C164.403 76.0869 164.685 75.8045 164.685 75.4679V69.2234C164.685 68.8867 164.403 68.6043 164.066 68.6043C163.795 68.6043 163.621 68.7564 163.512 68.9519L161.21 73.0787L158.908 68.9519C158.799 68.7564 158.625 68.6043 158.354 68.6043C158.017 68.6043 157.735 68.8867 157.735 69.2234V75.4679C157.735 75.8045 158.017 76.0869 158.354 76.0869C158.69 76.0869 158.973 75.8045 158.973 75.4679V71.5148L160.678 74.5448C160.786 74.7402 160.993 74.8488 161.21 74.8488ZM167.79 69.8207H170.548C170.863 69.8207 171.113 69.5709 171.113 69.2559C171.113 68.941 170.863 68.6912 170.548 68.6912H167.16C166.812 68.6912 166.53 68.9736 166.53 69.3211V75.3701C166.53 75.7176 166.812 76 167.16 76H170.668C170.983 76 171.233 75.7502 171.233 75.4353C171.233 75.1203 170.983 74.8706 170.668 74.8706H167.79V72.8723H169.842C170.147 72.8723 170.396 72.6225 170.396 72.3185C170.396 72.0144 170.147 71.7646 169.842 71.7646H167.79V69.8207ZM174.017 69.8207H174.854C176.244 69.8207 177.08 70.4614 177.08 72.351C177.08 74.2407 176.244 74.8706 174.854 74.8706H174.017V69.8207ZM173.388 68.6912C173.04 68.6912 172.758 68.9736 172.758 69.3211V75.3701C172.758 75.7176 173.04 76 173.388 76H174.854C177.015 76 178.383 75.0335 178.383 72.351C178.383 69.6686 177.015 68.6912 174.854 68.6912H173.388ZM181.199 69.2342C181.199 68.8867 180.917 68.6043 180.57 68.6043C180.222 68.6043 179.94 68.8867 179.94 69.2342V75.457C179.94 75.8045 180.222 76.0869 180.57 76.0869C180.917 76.0869 181.199 75.8045 181.199 75.457V69.2342ZM185.786 76.152C187.98 76.152 188.523 74.8488 188.523 73.6108V69.2342C188.523 68.8867 188.24 68.6043 187.893 68.6043C187.545 68.6043 187.263 68.8867 187.263 69.2342V73.6108C187.263 74.2733 187.013 75.0443 185.786 75.0443C184.559 75.0443 184.309 74.2733 184.309 73.6108V69.2342C184.309 68.8867 184.027 68.6043 183.679 68.6043C183.332 68.6043 183.049 68.8867 183.049 69.2342V73.6108C183.049 74.8488 183.592 76.152 185.786 76.152ZM193.737 74.8488C193.954 74.8488 194.161 74.7402 194.269 74.5448L195.974 71.5148V75.4679C195.974 75.8045 196.256 76.0869 196.593 76.0869C196.93 76.0869 197.212 75.8045 197.212 75.4679V69.2234C197.212 68.8867 196.93 68.6043 196.593 68.6043C196.322 68.6043 196.148 68.7564 196.039 68.9519L193.737 73.0787L191.435 68.9519C191.326 68.7564 191.152 68.6043 190.881 68.6043C190.544 68.6043 190.262 68.8867 190.262 69.2234V75.4679C190.262 75.8045 190.544 76.0869 190.881 76.0869C191.217 76.0869 191.5 75.8045 191.5 75.4679V71.5148L193.205 74.5448C193.313 74.7402 193.52 74.8488 193.737 74.8488Z" fill="#071C2C"/>
<path d="M210.353 91H145.647C144.737 91 144 91.733 144 92.6373V106.363C144 107.267 144.737 108 145.647 108H210.353C211.263 108 212 107.267 212 106.363V92.6373C212 91.733 211.263 91 210.353 91Z" fill="white"/>
<path d="M210.92 90.9102H145.29C144.368 90.9102 143.62 91.6578 143.62 92.5802V106.58C143.62 107.502 144.368 108.25 145.29 108.25H210.92C211.842 108.25 212.59 107.502 212.59 106.58V92.5802C212.59 91.6578 211.842 90.9102 210.92 90.9102Z" stroke="#071C2C" stroke-width="1.08" stroke-miterlimit="10"/>
<path d="M163.048 95.6043C162.711 95.6043 162.429 95.8867 162.429 96.2234V100.524L159.214 95.865C159.106 95.7021 158.932 95.6043 158.715 95.6043C158.378 95.6043 158.096 95.8867 158.096 96.2234V102.468C158.096 102.805 158.378 103.087 158.715 103.087C159.052 103.087 159.334 102.805 159.334 102.468V98.189L162.538 102.815C162.646 102.978 162.842 103.087 163.048 103.087C163.385 103.087 163.667 102.805 163.667 102.468V96.2234C163.667 95.8867 163.385 95.6043 163.048 95.6043ZM168.62 103.152C170.813 103.152 172.062 101.892 172.062 99.351C172.062 96.7772 170.813 95.5392 168.62 95.5392C166.426 95.5392 165.177 96.7772 165.177 99.351C165.177 101.892 166.426 103.152 168.62 103.152ZM168.62 96.6686C170.053 96.6686 170.759 97.5483 170.759 99.351C170.759 101.143 170.053 102.023 168.62 102.023C167.186 102.023 166.48 101.143 166.48 99.351C166.48 97.5483 167.186 96.6686 168.62 96.6686ZM178.586 100.198L180.563 102.859C180.671 103 180.867 103.087 181.052 103.087C181.399 103.087 181.681 102.805 181.681 102.457C181.681 102.338 181.649 102.207 181.551 102.077L179.944 100.122C180.986 99.9918 181.616 98.9927 181.616 97.961C181.616 96.7338 180.791 95.6912 179.325 95.6912H177.251C176.903 95.6912 176.621 95.9736 176.621 96.3211V102.457C176.621 102.805 176.903 103.087 177.251 103.087C177.598 103.087 177.88 102.805 177.88 102.457V100.198H178.586ZM179.314 96.8207C180.02 96.8207 180.313 97.3745 180.313 97.961C180.313 98.5365 180.02 99.0904 179.347 99.0904H177.88V96.8207H179.314ZM184.5 96.2342C184.5 95.8867 184.218 95.6043 183.87 95.6043C183.523 95.6043 183.241 95.8867 183.241 96.2342V102.457C183.241 102.805 183.523 103.087 183.87 103.087C184.218 103.087 184.5 102.805 184.5 102.457V96.2342ZM190.368 97.2442C190.531 97.3962 190.683 97.4831 190.835 97.4831C191.161 97.4831 191.422 97.2225 191.422 96.9075C191.422 96.7772 191.378 96.6578 191.313 96.56C190.879 95.941 189.934 95.5392 188.848 95.5392C187.121 95.5392 186.35 96.4514 186.35 97.5266C186.35 100.144 190.314 99.4162 190.314 101.002C190.314 101.675 189.836 102.001 188.848 102.001C188.099 102.001 187.523 101.632 187.067 101.176C186.958 101.067 186.828 100.937 186.589 100.937C186.274 100.937 186.013 101.197 186.013 101.523C186.013 101.632 186.046 101.74 186.1 101.827C186.524 102.511 187.556 103.152 188.848 103.152C190.64 103.152 191.574 102.327 191.574 101.002C191.574 98.2868 187.61 98.9492 187.61 97.5266C187.61 97.0922 187.947 96.6686 188.848 96.6686C189.467 96.6686 190.032 96.9184 190.368 97.2442ZM194.378 96.2342C194.378 95.8867 194.096 95.6043 193.748 95.6043C193.401 95.6043 193.119 95.8867 193.119 96.2342V102.457C193.119 102.805 193.401 103.087 193.748 103.087C194.096 103.087 194.378 102.805 194.378 102.457V100.372L194.997 99.7203L197.234 102.815C197.321 102.935 197.484 103.087 197.745 103.087C198.082 103.087 198.364 102.805 198.364 102.468C198.364 102.338 198.32 102.207 198.244 102.109L195.844 98.8406L197.886 96.6252C197.984 96.5166 198.049 96.3863 198.049 96.2125C198.049 95.8758 197.777 95.6043 197.441 95.6043C197.278 95.6043 197.115 95.6695 196.985 95.8107L194.378 98.7212V96.2342Z" fill="#071C2C"/>
</svg>
